<?xml version="1.0" encoding="utf-8" ?>
<svg baseProfile="full" height="43" version="1.1" viewBox="0 0 142 43" width="142" xmlns="http://www.w3.org/2000/svg" xmlns:ev="http://www.w3.org/2001/xml-events" xmlns:xlink="http://www.w3.org/1999/xlink"><defs /><path d="M 81.00,31.28 L 79.39,33.22 L 80.50,34.44 L 81.83,34.67 L 83.06,33.78 L 83.39,32.61 L 82.83,31.67 Z M 80.78,32.39 L 81.28,33.11 L 80.50,33.67 Z" fill="#FFFFFF" fill-rule="evenodd" /><path d="M 96.17,28.61 L 95.06,31.50 L 95.50,32.33 L 97.22,32.67 L 98.56,32.06 L 99.11,29.94 L 98.39,28.83 Z" fill="#FFFFFF" fill-rule="evenodd" /><path d="M 68.83,28.89 L 68.72,30.39 L 69.67,31.56 L 73.61,31.78 L 74.44,31.00 L 74.22,29.11 L 73.11,27.94 L 70.06,27.89 Z" fill="#FFFFFF" fill-rule="evenodd" /><path d="M 136.00,9.17 L 129.17,9.06 L 120.33,15.78 L 119.44,14.72 L 119.56,9.28 L 114.83,9.17 L 114.44,24.94 L 114.89,25.89 L 119.33,26.17 L 119.83,22.17 L 120.72,20.94 L 121.94,20.61 L 129.78,26.28 L 136.39,26.33 L 135.50,24.72 L 126.56,17.22 L 126.94,16.11 Z" fill="#FFFFFF" fill-rule="evenodd" /><path d="M 35.89,9.22 L 35.67,25.22 L 36.22,26.39 L 52.94,26.72 L 54.06,26.28 L 54.50,23.72 L 53.61,22.50 L 40.78,21.78 L 40.61,9.50 L 39.83,8.89 Z" fill="#FFFFFF" fill-rule="evenodd" /><path d="M 8.33,9.11 L 8.06,25.00 L 8.50,26.11 L 25.50,26.50 L 27.78,25.72 L 29.72,24.06 L 30.67,20.78 L 28.67,17.11 L 29.78,15.39 L 30.00,13.61 L 29.33,11.44 L 28.06,9.89 L 24.72,8.89 Z M 12.83,21.06 L 14.17,19.83 L 22.89,19.61 L 24.89,20.00 L 25.72,21.56 L 24.17,22.44 L 13.28,22.17 Z M 12.78,13.89 L 13.83,12.67 L 23.89,12.61 L 25.11,13.28 L 25.44,14.44 L 24.17,15.72 L 16.06,15.72 L 13.28,15.28 Z" fill="#FFFFFF" fill-rule="evenodd" /><path d="M 88.94,11.78 L 88.33,14.33 L 88.72,21.83 L 90.00,24.56 L 91.56,25.83 L 94.28,26.72 L 105.56,26.50 L 108.06,25.50 L 109.78,23.50 L 109.83,21.94 L 107.28,20.56 L 104.67,22.06 L 95.06,22.28 L 93.56,20.94 L 93.39,14.67 L 94.22,13.33 L 103.56,12.61 L 104.78,13.00 L 106.17,14.67 L 108.06,14.94 L 109.00,14.17 L 108.89,10.44 L 107.67,9.33 L 105.11,8.83 L 94.06,8.83 L 90.44,10.22 Z" fill="#FFFFFF" fill-rule="evenodd" /><path d="M 59.83,25.89 L 60.50,26.83 L 64.28,26.61 L 65.94,23.61 L 68.72,21.67 L 74.78,22.17 L 78.28,26.61 L 83.39,26.11 L 77.28,15.39 L 73.78,10.33 L 71.56,8.72 L 69.89,9.33 Z M 71.94,16.94 L 72.67,17.94 L 72.61,19.56 L 69.28,20.44 L 69.06,19.22 L 69.72,17.72 L 70.89,16.72 Z" fill="#FFFFFF" fill-rule="evenodd" /><ellipse cx="60.5" cy="29.799999999999997" fill="#7FE7F6" rx="5.5" ry="3.0" transform="rotate(-6,60.5,29.799999999999997)" /><ellipse cx="70.0" cy="30.5" fill="#B9FBFF" rx="5.25" ry="3.5" /><ellipse cx="80.6" cy="32.0" fill="#61D4FF" rx="5.5" ry="4.5" /><ellipse cx="95.69999999999999" cy="30.799999999999997" fill="#67E6FF" rx="5.0" ry="4.0" /></svg>